<mxfile host="app.diagrams.net" modified="2023-06-28T05:37:31.103Z" agent="Mozilla/5.0 (X11; Ubuntu; Linux x86_64; rv:109.0) Gecko/20100101 Firefox/110.0" version="21.5.1" etag="cr6gUskLOvjBujwM4uin" type="github">
  <diagram name="Page-1" id="6ZE0OSsZFNm_GgFOiU-m">
    <mxGraphModel>
      <root>
        <mxCell id="0" />
        <mxCell id="1" parent="0" />
      </root>
    </mxGraphModel>
  </diagram>
</mxfile>
